<svg version="1.1" id="Layer_1" xmlns="http://www.w3.org/2000/svg" xmlns:xlink="http://www.w3.org/1999/xlink" x="0px" y="0px"
	 width="100%" viewBox="0 0 1701 2102" enable-background="new 0 0 1701 2102" xml:space="preserve">
<path fill="#DD1F37" opacity="1.000000" stroke="none" 
	d="
M1.000021,2066.000000 
	C1.000000,1389.962402 1.000000,713.924805 1.346681,37.340981 
	C2.449539,35.553154 3.418023,34.392723 3.928638,33.057232 
	C8.415104,21.323092 15.739607,12.121089 27.439190,6.972262 
	C32.518490,4.736931 37.806686,2.976261 43.000000,1.000000 
	C581.704285,1.000000 1120.408569,1.000000 1659.714844,1.369416 
	C1676.363281,4.056338 1688.319458,12.311537 1696.117554,26.518030 
	C1698.186157,30.286211 1700.044922,34.169510 1702.000000,37.999985 
	C1702.000000,714.370911 1702.000000,1390.741821 1701.659302,2067.673828 
	C1697.732300,2074.139648 1694.586670,2080.375488 1690.460327,2085.875244 
	C1683.605347,2095.011475 1673.551025,2099.522217 1663.000000,2103.000000 
	C1121.295776,2103.000000 579.591492,2103.000000 37.433937,2102.611328 
	C36.732712,2101.846680 36.557770,2101.230225 36.226276,2101.129639 
	C19.257711,2095.978027 8.181586,2084.946533 2.916748,2068.011230 
	C2.670329,2067.218750 1.656488,2066.664795 1.000021,2066.000000 
M1602.000000,1856.500000 
	C1602.000000,1390.435913 1602.000000,924.371765 1602.000000,458.297424 
	C1101.372925,458.297424 601.339783,458.297424 101.296814,458.297424 
	C101.296814,973.294006 101.296814,1487.993042 101.296814,2002.702637 
	C601.626831,2002.702637 1101.659912,2002.702637 1602.000000,2002.702637 
	C1602.000000,1954.104004 1602.000000,1905.802002 1602.000000,1856.500000 
M114.060760,260.554016 
	C109.680580,254.318085 105.300407,248.082153 101.364868,242.479248 
	C101.364868,280.040588 101.364868,318.436066 101.364868,356.626770 
	C141.113403,356.626770 180.496246,356.626770 220.094101,356.626770 
	C216.225464,339.700256 221.261826,325.865723 234.229736,315.509613 
	C247.853333,304.629913 266.812225,303.735352 281.398682,313.285034 
	C296.895447,323.430603 302.761993,338.224945 299.070190,356.641357 
	C351.782196,356.641357 404.297699,356.641357 456.772156,356.641357 
	C453.016510,339.651520 458.247467,325.816711 471.231323,315.516815 
	C483.137909,306.071472 497.125854,303.966675 511.296387,309.903412 
	C531.965576,318.562805 539.290039,334.928772 536.304810,356.619019 
	C588.818726,356.619019 641.317383,356.619019 693.933044,356.619019 
	C689.145325,341.226837 695.521851,324.975739 708.962158,314.764923 
	C721.331116,305.368011 739.110596,303.649231 754.962585,313.023529 
	C762.542786,317.506195 767.738098,324.116943 771.040161,332.238007 
	C774.296387,340.246277 775.217651,348.428802 772.447083,356.793396 
	C825.374939,356.793396 877.964844,356.793396 930.464844,356.793396 
	C926.496094,338.900208 932.245911,324.489380 946.664368,314.305725 
	C960.439941,304.576202 975.922791,303.943726 990.478027,312.400818 
	C1007.351807,322.204987 1013.375000,337.640137 1009.742310,356.834900 
	C1062.316284,356.834900 1114.933716,356.834900 1167.572021,356.834900 
	C1162.912720,340.541016 1168.381714,326.244507 1180.047485,316.501862 
	C1193.854248,304.971130 1211.251587,302.714569 1227.457397,312.436523 
	C1243.882324,322.289978 1250.744385,337.479309 1246.593628,356.801178 
	C1299.008667,356.801178 1351.301514,356.801178 1404.158203,356.801178 
	C1400.865967,343.080200 1404.140625,330.900208 1413.034302,320.666687 
	C1422.223267,310.093170 1434.517578,305.657532 1448.326538,307.123505 
	C1471.671265,309.601929 1489.635132,332.356079 1483.292725,356.751953 
	C1522.744629,356.751953 1562.169800,356.751953 1601.676880,356.751953 
	C1601.676880,318.536133 1601.676880,280.569183 1601.676880,241.858032 
	C1589.605103,269.712311 1567.741943,273.116211 1551.437744,268.797516 
	C1533.485229,264.042175 1522.527588,251.501495 1521.318115,230.748367 
	C1520.457520,215.982056 1526.845581,197.991531 1548.104370,191.276108 
	C1572.715332,183.501785 1590.994019,192.679916 1601.680176,217.606155 
	C1601.680176,178.330704 1601.680176,140.295471 1601.680176,102.314453 
	C1561.976807,102.314453 1522.593994,102.314453 1483.351196,102.314453 
	C1487.237549,118.715958 1482.102539,132.119934 1469.887207,142.378738 
	C1457.272461,152.972855 1442.257080,155.349609 1427.298584,148.464340 
	C1407.898315,139.534424 1400.785034,123.260971 1403.693726,102.236496 
	C1351.207275,102.236496 1298.836548,102.236496 1246.518921,102.236496 
	C1250.626221,119.971016 1244.405151,134.255814 1230.717773,144.357956 
	C1217.110474,154.400940 1201.162720,155.358292 1186.558350,146.551468 
	C1170.198975,136.686310 1163.122192,121.577888 1167.329834,102.163422 
	C1114.685791,102.163422 1062.066895,102.163422 1009.399719,102.163422 
	C1014.768372,120.219490 1005.029785,137.086273 993.048767,144.926102 
	C977.724854,154.953323 961.755615,154.658585 946.806458,144.727722 
	C936.092346,137.610306 925.590820,122.906364 930.443237,102.288925 
	C878.017334,102.288925 825.581909,102.288925 773.130615,102.288925 
	C776.180298,122.254875 769.759766,137.816330 752.009277,147.312057 
	C736.977173,155.353577 721.563782,153.644638 708.362854,143.440674 
	C695.220337,133.281830 689.477844,119.284729 693.666687,102.219971 
	C641.229187,102.219971 588.783569,102.219971 535.763916,102.219971 
	C539.309875,115.639221 535.975525,127.537132 527.572693,137.636581 
	C518.904236,148.055298 507.042877,152.762939 493.573120,151.871506 
	C481.675720,151.084152 471.429626,145.896408 464.047394,136.388290 
	C456.251099,126.346863 453.731140,114.811386 456.793152,102.266571 
	C404.029510,102.266571 351.591095,102.266571 299.039062,102.266571 
	C302.706757,120.685173 296.996429,135.579712 281.632996,145.484085 
	C267.337494,154.699982 251.593536,154.687317 237.300644,145.448013 
	C221.947052,135.523056 216.210510,120.658417 219.959610,102.355164 
	C180.279465,102.355164 140.734756,102.355164 101.237289,102.355164 
	C101.237289,140.598236 101.237289,178.485687 101.237289,217.521225 
	C102.390884,215.740646 103.130493,214.924774 103.509476,213.966293 
	C112.143974,192.128906 133.440186,184.611908 153.805756,190.554428 
	C174.493759,196.591034 186.081039,218.580673 180.659210,239.567734 
	C177.595398,251.427216 170.757309,260.759827 159.302536,265.984894 
	C143.471649,273.206116 128.580978,271.215607 114.060760,260.554016 
z"/>
<path fill="#FFFFFF" opacity="1.000000" stroke="none" 
	d="
M42.531342,1.000000 
	C37.806686,2.976261 32.518490,4.736931 27.439190,6.972262 
	C15.739607,12.121089 8.415104,21.323092 3.928638,33.057232 
	C3.418023,34.392723 2.449539,35.553154 1.346681,36.897377 
	C1.000000,25.067713 1.000000,13.135427 1.000000,1.000000 
	C14.686892,1.000000 28.374788,1.000000 42.531342,1.000000 
z"/>
<path fill="#FFFFFF" opacity="1.000000" stroke="none" 
	d="
M1702.000000,37.531326 
	C1700.044922,34.169510 1698.186157,30.286211 1696.117554,26.518030 
	C1688.319458,12.311537 1676.363281,4.056338 1660.158447,1.369416 
	C1673.921997,1.000000 1687.843994,1.000000 1702.000000,1.000000 
	C1702.000000,13.019883 1702.000000,25.041283 1702.000000,37.531326 
z"/>
<path fill="#FFFFFF" opacity="1.000000" stroke="none" 
	d="
M1.000021,2066.468750 
	C1.656488,2066.664795 2.670329,2067.218750 2.916748,2068.011230 
	C8.181586,2084.946533 19.257711,2095.978027 36.226276,2101.129639 
	C36.557770,2101.230225 36.732712,2101.846680 36.990334,2102.611328 
	C25.072414,2103.000000 13.144828,2103.000000 1.000000,2103.000000 
	C1.000000,2090.979980 1.000000,2078.958740 1.000021,2066.468750 
z"/>
<path fill="#FFFFFF" opacity="1.000000" stroke="none" 
	d="
M1663.468628,2103.000000 
	C1673.551025,2099.522217 1683.605347,2095.011475 1690.460327,2085.875244 
	C1694.586670,2080.375488 1697.732300,2074.139648 1701.659302,2068.117432 
	C1702.000000,2079.597168 1702.000000,2091.194580 1702.000000,2103.000000 
	C1689.313232,2103.000000 1676.625244,2103.000000 1663.468628,2103.000000 
z"/>
<path fill="#FFFFFF" opacity="1.000000" stroke="none" 
	d="
M1602.000000,1857.000000 
	C1602.000000,1905.802002 1602.000000,1954.104004 1602.000000,2002.702637 
	C1101.659912,2002.702637 601.626831,2002.702637 101.296814,2002.702637 
	C101.296814,1487.993042 101.296814,973.294006 101.296814,458.297424 
	C601.339783,458.297424 1101.372925,458.297424 1602.000000,458.297424 
	C1602.000000,924.371765 1602.000000,1390.435913 1602.000000,1857.000000 
M1273.304077,1021.302002 
	C1273.432373,1021.427246 1273.560791,1021.552490 1273.235840,1022.191040 
	C1270.341064,1026.111572 1267.508545,1030.079834 1264.540283,1033.943970 
	C1253.707886,1048.045654 1242.833374,1062.115234 1231.968384,1076.191895 
	C1224.787354,1085.495605 1217.481689,1094.705566 1210.440063,1104.113281 
	C1203.267090,1113.696777 1195.750732,1122.875000 1193.628418,1135.502197 
	C1190.542358,1153.864014 1197.879517,1174.748413 1214.205322,1186.116943 
	C1234.324951,1200.127197 1263.732300,1197.697754 1279.854370,1179.477295 
	C1288.292358,1169.940796 1295.939819,1159.691528 1303.732910,1149.600952 
	C1315.392334,1134.504272 1326.812134,1119.223022 1338.431396,1104.095215 
	C1352.151733,1086.232056 1366.021118,1068.483643 1379.741211,1050.620483 
	C1391.360352,1035.492554 1402.929810,1020.325134 1414.381958,1005.070557 
	C1420.532349,996.877991 1427.676758,989.096436 1432.123413,980.026672 
	C1442.990356,957.861877 1437.161621,932.379700 1417.211792,916.786682 
	C1395.616455,899.907410 1373.806396,883.302612 1352.078735,866.592712 
	C1329.059814,848.889709 1306.039062,831.188782 1282.997192,813.515625 
	C1267.467163,801.604004 1251.756470,789.922913 1236.392456,777.801575 
	C1223.799683,767.866455 1210.230713,762.156189 1193.752563,763.882996 
	C1179.040283,765.424744 1167.694092,772.523804 1159.168945,783.882629 
	C1151.237793,794.450012 1148.039307,806.586670 1149.859619,820.113525 
	C1151.380615,831.416992 1155.335449,841.457336 1163.715942,848.977295 
	C1172.942749,857.256653 1182.999878,864.619263 1192.787598,872.262939 
	C1208.097046,884.218872 1223.474854,896.087585 1238.843750,907.967285 
	C1244.184082,912.095276 1249.583740,916.146606 1255.300537,920.494873 
	C1253.068848,921.159790 1251.699585,921.708069 1250.277344,921.969971 
	C1233.330444,925.090576 1216.113281,927.158752 1199.481201,931.481995 
	C1170.828003,938.930054 1142.355591,947.206482 1114.160400,956.237610 
	C1096.003906,962.053284 1078.193970,969.194763 1060.740601,976.901428 
	C1038.179077,986.863586 1016.027039,997.776855 993.896851,1008.682922 
	C981.517273,1014.783813 969.167664,1021.100708 957.456299,1028.370239 
	C932.481262,1043.872803 907.456116,1059.377075 883.337585,1076.154175 
	C858.208008,1093.634521 833.804688,1112.209229 809.686890,1131.076294 
	C793.021240,1144.113647 777.154907,1158.208008 761.345459,1172.294678 
	C746.283752,1185.715332 731.532043,1199.505127 717.067383,1213.568237 
	C704.683716,1225.608032 692.822388,1238.190430 680.873962,1250.670898 
	C671.034058,1260.948975 661.259338,1271.297241 651.718506,1281.852051 
	C638.580994,1296.385742 625.482178,1310.964844 612.753479,1325.854980 
	C599.986267,1340.790283 587.402954,1355.902832 575.262268,1371.348999 
	C557.420227,1394.048584 539.619080,1416.803345 522.579956,1440.104736 
	C503.192047,1466.617920 484.133667,1493.405640 465.892792,1520.715698 
	C443.523682,1554.206543 421.939941,1588.229370 400.435303,1622.286621 
	C389.864960,1639.027100 380.195038,1656.338013 370.199371,1673.438721 
	C362.909454,1685.910278 355.460907,1698.303101 348.635803,1711.027466 
	C343.752106,1720.132324 338.444397,1729.354858 335.704651,1739.187866 
	C330.968445,1756.185669 335.445221,1771.811523 347.465515,1784.928833 
	C358.473999,1796.941895 372.298645,1802.130981 388.479004,1800.975952 
	C399.509644,1800.188721 409.251587,1796.288330 417.671722,1788.907471 
	C425.652618,1781.911377 430.048767,1772.647949 435.190765,1763.691650 
	C449.176880,1739.331299 463.434692,1715.117920 478.052490,1691.131348 
	C493.173279,1666.319702 508.387543,1641.541870 524.394775,1617.299683 
	C542.400085,1590.031616 560.989441,1563.130371 579.973206,1536.532471 
	C596.910278,1512.802124 614.335449,1489.393677 632.269470,1466.408325 
	C651.789490,1441.390381 671.923401,1416.839966 692.217468,1392.441528 
	C704.528137,1377.640991 717.480103,1363.360352 730.456482,1349.131104 
	C742.062927,1336.403931 753.901733,1323.873901 765.998657,1311.612549 
	C778.131104,1299.315430 790.632385,1287.377686 803.118408,1275.435181 
	C812.197144,1266.751709 821.355957,1258.138550 830.761597,1249.813232 
	C845.651550,1236.633301 860.607483,1223.516602 875.855713,1210.755859 
	C889.144531,1199.634888 902.517395,1188.552002 916.499084,1178.336548 
	C935.523743,1164.436768 954.689819,1150.620728 974.656189,1138.146851 
	C1000.526550,1121.984741 1026.674805,1106.074097 1053.761841,1092.108154 
	C1079.668091,1078.750977 1106.727661,1067.536377 1133.676758,1056.333984 
	C1148.427856,1050.202271 1163.820435,1045.392944 1179.244507,1041.154907 
	C1200.325806,1035.362671 1221.655151,1030.425903 1242.994263,1025.639648 
	C1252.829590,1023.433716 1262.940063,1022.454834 1273.304077,1021.302002 
M258.067200,820.791687 
	C257.044800,832.902222 255.710983,844.997620 255.120819,857.129150 
	C254.785385,864.024170 255.364288,871.009338 256.068542,877.898987 
	C257.214478,889.109802 257.981293,900.453857 260.367554,911.424255 
	C265.732147,936.086792 274.653137,959.482849 287.089935,981.573914 
	C302.041138,1008.131226 321.656128,1030.760132 344.892731,1050.125122 
	C361.519562,1063.981567 379.992950,1075.151123 399.870728,1084.118652 
	C425.662018,1095.753906 452.637482,1102.782471 480.638275,1104.751587 
	C506.638123,1106.580078 532.739868,1105.200073 558.211792,1098.848022 
	C586.788147,1091.721680 613.587646,1080.090698 637.835083,1063.407227 
	C657.073425,1050.170288 674.572815,1034.797119 689.306641,1016.374573 
	C700.235779,1002.709412 710.513428,988.602356 717.832764,972.780273 
	C724.885071,957.535400 731.082397,941.803223 736.369446,925.858704 
	C741.819336,909.423096 744.338440,892.141541 744.778564,874.867188 
	C745.169006,859.541748 744.582642,844.057434 742.736877,828.848450 
	C741.045105,814.908325 737.602173,801.108521 734.010559,787.489502 
	C729.439331,770.156006 721.711243,754.036072 712.848572,738.478210 
	C702.851318,720.928711 690.874023,704.821838 676.762512,690.403687 
	C669.966675,683.460144 662.560120,677.088440 655.183655,670.744324 
	C639.672668,657.404114 622.267456,646.998962 603.782288,638.350891 
	C581.436951,627.897095 558.182678,620.647278 533.554443,617.921814 
	C519.200500,616.333313 504.989655,614.746765 490.403229,615.745178 
	C475.003540,616.799255 459.858765,618.517029 444.774872,621.857300 
	C417.683441,627.856689 392.651825,638.550415 369.250244,653.261597 
	C347.725098,666.793213 328.547577,683.170593 312.735992,703.039978 
	C302.942780,715.346497 293.748230,728.318481 285.847717,741.900757 
	C271.786591,766.073975 262.879395,792.314880 258.067200,820.791687 
M1313.500000,1473.000000 
	C1285.859863,1500.652588 1258.219727,1528.305176 1230.514771,1556.022461 
	C1187.740112,1513.245361 1145.074707,1470.826782 1102.738892,1428.081543 
	C1090.653198,1415.878906 1076.927979,1409.562012 1059.586304,1410.905029 
	C1048.204590,1411.786377 1038.413086,1415.901245 1030.113525,1423.458130 
	C1018.837463,1433.724976 1013.625244,1446.522827 1013.878418,1461.933716 
	C1014.106140,1475.794800 1018.870544,1487.368774 1028.569092,1497.068481 
	C1070.166260,1538.671265 1111.763672,1580.273926 1153.383301,1621.854248 
	C1155.239868,1623.709106 1157.315918,1625.343994 1159.357300,1627.140869 
	C1116.401489,1670.096436 1073.979126,1712.521118 1031.553833,1754.942749 
	C1019.840149,1766.655640 1013.181885,1780.057129 1013.789917,1797.360596 
	C1014.681396,1822.731079 1034.475952,1842.305298 1058.556396,1844.857178 
	C1075.225830,1846.623901 1089.644653,1840.959351 1101.629761,1828.929321 
	C1143.387085,1787.015503 1185.269409,1745.226562 1227.110962,1703.396729 
	C1228.364136,1702.143799 1229.687866,1700.961426 1231.333984,1699.411743 
	C1232.843628,1701.082764 1234.009521,1702.493042 1235.297119,1703.781372 
	C1277.948120,1746.451538 1320.593628,1789.127197 1363.286743,1831.755249 
	C1371.465088,1839.921021 1381.690796,1844.085327 1393.003052,1844.897949 
	C1409.388428,1846.075195 1423.337891,1840.823120 1434.988281,1828.683350 
	C1452.332764,1810.609497 1452.486084,1777.991699 1434.663208,1760.164429 
	C1391.889648,1717.381226 1349.117676,1674.596313 1306.274902,1631.882446 
	C1305.028687,1630.640015 1302.995361,1630.187256 1301.329102,1629.366211 
	C1304.089233,1626.054321 1305.549683,1624.928711 1306.843018,1623.635986 
	C1348.927002,1581.577271 1391.005005,1539.512573 1433.056030,1497.420898 
	C1441.631592,1488.836914 1446.928955,1478.375977 1447.859619,1466.380493 
	C1449.319214,1447.568237 1443.121460,1431.662842 1427.572632,1420.085571 
	C1415.313599,1410.957642 1401.434082,1409.261597 1386.857422,1411.649292 
	C1375.465942,1413.515381 1366.546265,1420.103638 1358.573364,1427.981445 
	C1343.635986,1442.740356 1328.849365,1457.651978 1313.500000,1473.000000 
z"/>
<path fill="#FFFFFF" opacity="1.000000" stroke="none" 
	d="
M114.367447,260.750732 
	C128.580978,271.215607 143.471649,273.206116 159.302536,265.984894 
	C170.757309,260.759827 177.595398,251.427216 180.659210,239.567734 
	C186.081039,218.580673 174.493759,196.591034 153.805756,190.554428 
	C133.440186,184.611908 112.143974,192.128906 103.509476,213.966293 
	C103.130493,214.924774 102.390884,215.740646 101.237289,217.521225 
	C101.237289,178.485687 101.237289,140.598236 101.237289,102.355164 
	C140.734756,102.355164 180.279465,102.355164 219.959610,102.355164 
	C216.210510,120.658417 221.947052,135.523056 237.300644,145.448013 
	C251.593536,154.687317 267.337494,154.699982 281.632996,145.484085 
	C296.996429,135.579712 302.706757,120.685173 299.039062,102.266571 
	C351.591095,102.266571 404.029510,102.266571 456.793152,102.266571 
	C453.731140,114.811386 456.251099,126.346863 464.047394,136.388290 
	C471.429626,145.896408 481.675720,151.084152 493.573120,151.871506 
	C507.042877,152.762939 518.904236,148.055298 527.572693,137.636581 
	C535.975525,127.537132 539.309875,115.639221 535.763916,102.219971 
	C588.783569,102.219971 641.229187,102.219971 693.666687,102.219971 
	C689.477844,119.284729 695.220337,133.281830 708.362854,143.440674 
	C721.563782,153.644638 736.977173,155.353577 752.009277,147.312057 
	C769.759766,137.816330 776.180298,122.254875 773.130615,102.288925 
	C825.581909,102.288925 878.017334,102.288925 930.443237,102.288925 
	C925.590820,122.906364 936.092346,137.610306 946.806458,144.727722 
	C961.755615,154.658585 977.724854,154.953323 993.048767,144.926102 
	C1005.029785,137.086273 1014.768372,120.219490 1009.399719,102.163422 
	C1062.066895,102.163422 1114.685791,102.163422 1167.329834,102.163422 
	C1163.122192,121.577888 1170.198975,136.686310 1186.558350,146.551468 
	C1201.162720,155.358292 1217.110474,154.400940 1230.717773,144.357956 
	C1244.405151,134.255814 1250.626221,119.971016 1246.518921,102.236496 
	C1298.836548,102.236496 1351.207275,102.236496 1403.693726,102.236496 
	C1400.785034,123.260971 1407.898315,139.534424 1427.298584,148.464340 
	C1442.257080,155.349609 1457.272461,152.972855 1469.887207,142.378738 
	C1482.102539,132.119934 1487.237549,118.715958 1483.351196,102.314453 
	C1522.593994,102.314453 1561.976807,102.314453 1601.680176,102.314453 
	C1601.680176,140.295471 1601.680176,178.330704 1601.680176,217.606155 
	C1590.994019,192.679916 1572.715332,183.501785 1548.104370,191.276108 
	C1526.845581,197.991531 1520.457520,215.982056 1521.318115,230.748367 
	C1522.527588,251.501495 1533.485229,264.042175 1551.437744,268.797516 
	C1567.741943,273.116211 1589.605103,269.712311 1601.676880,241.858032 
	C1601.676880,280.569183 1601.676880,318.536133 1601.676880,356.751953 
	C1562.169800,356.751953 1522.744629,356.751953 1483.292725,356.751953 
	C1489.635132,332.356079 1471.671265,309.601929 1448.326538,307.123505 
	C1434.517578,305.657532 1422.223267,310.093170 1413.034302,320.666687 
	C1404.140625,330.900208 1400.865967,343.080200 1404.158203,356.801178 
	C1351.301514,356.801178 1299.008667,356.801178 1246.593628,356.801178 
	C1250.744385,337.479309 1243.882324,322.289978 1227.457397,312.436523 
	C1211.251587,302.714569 1193.854248,304.971130 1180.047485,316.501862 
	C1168.381714,326.244507 1162.912720,340.541016 1167.572021,356.834900 
	C1114.933716,356.834900 1062.316284,356.834900 1009.742310,356.834900 
	C1013.375000,337.640137 1007.351807,322.204987 990.478027,312.400818 
	C975.922791,303.943726 960.439941,304.576202 946.664368,314.305725 
	C932.245911,324.489380 926.496094,338.900208 930.464844,356.793396 
	C877.964844,356.793396 825.374939,356.793396 772.447083,356.793396 
	C775.217651,348.428802 774.296387,340.246277 771.040161,332.238007 
	C767.738098,324.116943 762.542786,317.506195 754.962585,313.023529 
	C739.110596,303.649231 721.331116,305.368011 708.962158,314.764923 
	C695.521851,324.975739 689.145325,341.226837 693.933044,356.619019 
	C641.317383,356.619019 588.818726,356.619019 536.304810,356.619019 
	C539.290039,334.928772 531.965576,318.562805 511.296387,309.903412 
	C497.125854,303.966675 483.137909,306.071472 471.231323,315.516815 
	C458.247467,325.816711 453.016510,339.651520 456.772156,356.641357 
	C404.297699,356.641357 351.782196,356.641357 299.070190,356.641357 
	C302.761993,338.224945 296.895447,323.430603 281.398682,313.285034 
	C266.812225,303.735352 247.853333,304.629913 234.229736,315.509613 
	C221.261826,325.865723 216.225464,339.700256 220.094101,356.626770 
	C180.496246,356.626770 141.113403,356.626770 101.364868,356.626770 
	C101.364868,318.436066 101.364868,280.040588 101.364868,242.479248 
	C105.300407,248.082153 109.680580,254.318085 114.367447,260.750732 
M409.563568,203.068359 
	C398.075073,190.294632 383.772247,186.384735 367.297028,190.026764 
	C344.506622,195.064865 330.241486,221.877426 340.013977,244.790497 
	C347.228516,261.706085 360.271820,270.118011 378.779968,270.017456 
	C401.130371,269.896027 417.962708,252.711197 418.921600,230.417923 
	C419.347443,220.517517 415.948059,211.588028 409.563568,203.068359 
M651.959656,211.774200 
	C646.407532,200.953659 638.150024,192.798676 626.213135,190.170914 
	C607.656006,186.085739 590.898804,190.183914 579.362244,209.081436 
	C570.404968,223.754089 572.797424,244.336670 584.249634,256.710541 
	C593.084351,266.256226 603.915894,270.786804 617.122314,270.093231 
	C627.987976,269.522552 637.419067,265.614288 644.475769,257.777802 
	C656.372375,244.566589 658.878784,229.196121 651.959656,211.774200 
M836.868713,191.047043 
	C835.724731,191.674591 834.584412,192.308792 833.436401,192.928757 
	C812.821472,204.060867 807.406494,222.032364 812.390076,241.295166 
	C816.594421,257.545624 832.860352,270.617493 852.120117,270.156250 
	C878.858948,269.515808 896.874634,246.988327 891.564514,220.832535 
	C886.316162,194.980835 861.899902,183.528778 836.868713,191.047043 
M1080.174438,269.666473 
	C1088.720459,270.390289 1097.378174,270.969025 1105.245361,266.871582 
	C1120.483887,258.934967 1129.397949,246.889389 1129.045288,228.939255 
	C1128.720825,212.415253 1121.376221,200.603134 1106.757080,192.865707 
	C1099.721924,189.142258 1092.421021,188.835892 1084.831665,188.965378 
	C1074.386353,189.143616 1065.715698,193.829071 1058.891968,200.911285 
	C1048.258667,211.947296 1045.802002,225.727966 1049.046387,240.505905 
	C1051.981567,253.875320 1066.618408,267.483521 1080.174438,269.666473 
M1356.538452,203.027130 
	C1340.306885,182.552582 1306.679199,184.983231 1292.476562,204.872559 
	C1281.314087,220.504501 1281.616089,243.830154 1295.886353,258.003510 
	C1308.269043,270.302094 1323.494873,273.442871 1340.545776,267.247406 
	C1366.755371,257.724060 1374.069702,223.125778 1356.538452,203.027130 
z"/>
<path fill="#DD1F37" opacity="1.000000" stroke="none" 
	d="
M1272.925781,1020.919556 
	C1262.940063,1022.454834 1252.829590,1023.433716 1242.994263,1025.639648 
	C1221.655151,1030.425903 1200.325806,1035.362671 1179.244507,1041.154907 
	C1163.820435,1045.392944 1148.427856,1050.202271 1133.676758,1056.333984 
	C1106.727661,1067.536377 1079.668091,1078.750977 1053.761841,1092.108154 
	C1026.674805,1106.074097 1000.526550,1121.984741 974.656189,1138.146851 
	C954.689819,1150.620728 935.523743,1164.436768 916.499084,1178.336548 
	C902.517395,1188.552002 889.144531,1199.634888 875.855713,1210.755859 
	C860.607483,1223.516602 845.651550,1236.633301 830.761597,1249.813232 
	C821.355957,1258.138550 812.197144,1266.751709 803.118408,1275.435181 
	C790.632385,1287.377686 778.131104,1299.315430 765.998657,1311.612549 
	C753.901733,1323.873901 742.062927,1336.403931 730.456482,1349.131104 
	C717.480103,1363.360352 704.528137,1377.640991 692.217468,1392.441528 
	C671.923401,1416.839966 651.789490,1441.390381 632.269470,1466.408325 
	C614.335449,1489.393677 596.910278,1512.802124 579.973206,1536.532471 
	C560.989441,1563.130371 542.400085,1590.031616 524.394775,1617.299683 
	C508.387543,1641.541870 493.173279,1666.319702 478.052490,1691.131348 
	C463.434692,1715.117920 449.176880,1739.331299 435.190765,1763.691650 
	C430.048767,1772.647949 425.652618,1781.911377 417.671722,1788.907471 
	C409.251587,1796.288330 399.509644,1800.188721 388.479004,1800.975952 
	C372.298645,1802.130981 358.473999,1796.941895 347.465515,1784.928833 
	C335.445221,1771.811523 330.968445,1756.185669 335.704651,1739.187866 
	C338.444397,1729.354858 343.752106,1720.132324 348.635803,1711.027466 
	C355.460907,1698.303101 362.909454,1685.910278 370.199371,1673.438721 
	C380.195038,1656.338013 389.864960,1639.027100 400.435303,1622.286621 
	C421.939941,1588.229370 443.523682,1554.206543 465.892792,1520.715698 
	C484.133667,1493.405640 503.192047,1466.617920 522.579956,1440.104736 
	C539.619080,1416.803345 557.420227,1394.048584 575.262268,1371.348999 
	C587.402954,1355.902832 599.986267,1340.790283 612.753479,1325.854980 
	C625.482178,1310.964844 638.580994,1296.385742 651.718506,1281.852051 
	C661.259338,1271.297241 671.034058,1260.948975 680.873962,1250.670898 
	C692.822388,1238.190430 704.683716,1225.608032 717.067383,1213.568237 
	C731.532043,1199.505127 746.283752,1185.715332 761.345459,1172.294678 
	C777.154907,1158.208008 793.021240,1144.113647 809.686890,1131.076294 
	C833.804688,1112.209229 858.208008,1093.634521 883.337585,1076.154175 
	C907.456116,1059.377075 932.481262,1043.872803 957.456299,1028.370239 
	C969.167664,1021.100708 981.517273,1014.783813 993.896851,1008.682922 
	C1016.027039,997.776855 1038.179077,986.863586 1060.740601,976.901428 
	C1078.193970,969.194763 1096.003906,962.053284 1114.160400,956.237610 
	C1142.355591,947.206482 1170.828003,938.930054 1199.481201,931.481995 
	C1216.113281,927.158752 1233.330444,925.090576 1250.277344,921.969971 
	C1251.699585,921.708069 1253.068848,921.159790 1255.300537,920.494873 
	C1249.583740,916.146606 1244.184082,912.095276 1238.843750,907.967285 
	C1223.474854,896.087585 1208.097046,884.218872 1192.787598,872.262939 
	C1182.999878,864.619263 1172.942749,857.256653 1163.715942,848.977295 
	C1155.335449,841.457336 1151.380615,831.416992 1149.859619,820.113525 
	C1148.039307,806.586670 1151.237793,794.450012 1159.168945,783.882629 
	C1167.694092,772.523804 1179.040283,765.424744 1193.752563,763.882996 
	C1210.230713,762.156189 1223.799683,767.866455 1236.392456,777.801575 
	C1251.756470,789.922913 1267.467163,801.604004 1282.997192,813.515625 
	C1306.039062,831.188782 1329.059814,848.889709 1352.078735,866.592712 
	C1373.806396,883.302612 1395.616455,899.907410 1417.211792,916.786682 
	C1437.161621,932.379700 1442.990356,957.861877 1432.123413,980.026672 
	C1427.676758,989.096436 1420.532349,996.877991 1414.381958,1005.070557 
	C1402.929810,1020.325134 1391.360352,1035.492554 1379.741211,1050.620483 
	C1366.021118,1068.483643 1352.151733,1086.232056 1338.431396,1104.095215 
	C1326.812134,1119.223022 1315.392334,1134.504272 1303.732910,1149.600952 
	C1295.939819,1159.691528 1288.292358,1169.940796 1279.854370,1179.477295 
	C1263.732300,1197.697754 1234.324951,1200.127197 1214.205322,1186.116943 
	C1197.879517,1174.748413 1190.542358,1153.864014 1193.628418,1135.502197 
	C1195.750732,1122.875000 1203.267090,1113.696777 1210.440063,1104.113281 
	C1217.481689,1094.705566 1224.787354,1085.495605 1231.968384,1076.191895 
	C1242.833374,1062.115234 1253.707886,1048.045654 1264.540283,1033.943970 
	C1267.508545,1030.079834 1270.341064,1026.111572 1273.682983,1021.741943 
	C1274.294922,1020.952515 1274.459595,1020.612122 1274.624390,1020.271729 
	C1274.058228,1020.487732 1273.491943,1020.703674 1272.925781,1020.919556 
z"/>
<path fill="#DD1F37" opacity="1.000000" stroke="none" 
	d="
M258.279053,820.400208 
	C262.879395,792.314880 271.786591,766.073975 285.847717,741.900757 
	C293.748230,728.318481 302.942780,715.346497 312.735992,703.039978 
	C328.547577,683.170593 347.725098,666.793213 369.250244,653.261597 
	C392.651825,638.550415 417.683441,627.856689 444.774872,621.857300 
	C459.858765,618.517029 475.003540,616.799255 490.403229,615.745178 
	C504.989655,614.746765 519.200500,616.333313 533.554443,617.921814 
	C558.182678,620.647278 581.436951,627.897095 603.782288,638.350891 
	C622.267456,646.998962 639.672668,657.404114 655.183655,670.744324 
	C662.560120,677.088440 669.966675,683.460144 676.762512,690.403687 
	C690.874023,704.821838 702.851318,720.928711 712.848572,738.478210 
	C721.711243,754.036072 729.439331,770.156006 734.010559,787.489502 
	C737.602173,801.108521 741.045105,814.908325 742.736877,828.848450 
	C744.582642,844.057434 745.169006,859.541748 744.778564,874.867188 
	C744.338440,892.141541 741.819336,909.423096 736.369446,925.858704 
	C731.082397,941.803223 724.885071,957.535400 717.832764,972.780273 
	C710.513428,988.602356 700.235779,1002.709412 689.306641,1016.374573 
	C674.572815,1034.797119 657.073425,1050.170288 637.835083,1063.407227 
	C613.587646,1080.090698 586.788147,1091.721680 558.211792,1098.848022 
	C532.739868,1105.200073 506.638123,1106.580078 480.638275,1104.751587 
	C452.637482,1102.782471 425.662018,1095.753906 399.870728,1084.118652 
	C379.992950,1075.151123 361.519562,1063.981567 344.892731,1050.125122 
	C321.656128,1030.760132 302.041138,1008.131226 287.089935,981.573914 
	C274.653137,959.482849 265.732147,936.086792 260.367554,911.424255 
	C257.981293,900.453857 257.214478,889.109802 256.068542,877.898987 
	C255.364288,871.009338 254.785385,864.024170 255.120819,857.129150 
	C255.710983,844.997620 257.044800,832.902222 258.279053,820.400208 
M549.282654,725.063904 
	C548.638306,724.949890 547.957092,724.933838 547.354858,724.707703 
	C524.631897,716.171936 501.133087,714.269531 477.412445,718.192810 
	C455.253540,721.857788 434.895294,730.310608 416.491302,743.681152 
	C397.660370,757.361816 382.506866,774.157471 372.209015,794.811218 
	C360.253021,818.790771 354.244934,844.125000 356.770752,871.415588 
	C358.525726,890.376892 363.230774,908.259827 371.695496,925.061768 
	C381.616974,944.755371 395.435272,961.412720 413.192749,974.759216 
	C444.318512,998.153381 479.072662,1007.559509 517.769714,1003.075806 
	C536.612122,1000.892639 554.070068,994.950989 570.586731,985.822632 
	C589.638184,975.293213 605.487732,960.919434 617.760803,943.242310 
	C638.406616,913.505737 647.379639,880.452148 643.130066,844.012512 
	C641.202515,827.484314 636.729431,811.816589 629.414978,797.073547 
	C619.867371,777.829346 606.662720,761.381226 589.631775,748.007446 
	C577.498291,738.479248 564.455200,730.768799 549.282654,725.063904 
z"/>
<path fill="#DD1F37" opacity="1.000000" stroke="none" 
	d="
M1313.750000,1472.750000 
	C1328.849365,1457.651978 1343.635986,1442.740356 1358.573364,1427.981445 
	C1366.546265,1420.103638 1375.465942,1413.515381 1386.857422,1411.649292 
	C1401.434082,1409.261597 1415.313599,1410.957642 1427.572632,1420.085571 
	C1443.121460,1431.662842 1449.319214,1447.568237 1447.859619,1466.380493 
	C1446.928955,1478.375977 1441.631592,1488.836914 1433.056030,1497.420898 
	C1391.005005,1539.512573 1348.927002,1581.577271 1306.843018,1623.635986 
	C1305.549683,1624.928711 1304.089233,1626.054321 1301.329102,1629.366211 
	C1302.995361,1630.187256 1305.028687,1630.640015 1306.274902,1631.882446 
	C1349.117676,1674.596313 1391.889648,1717.381226 1434.663208,1760.164429 
	C1452.486084,1777.991699 1452.332764,1810.609497 1434.988281,1828.683350 
	C1423.337891,1840.823120 1409.388428,1846.075195 1393.003052,1844.897949 
	C1381.690796,1844.085327 1371.465088,1839.921021 1363.286743,1831.755249 
	C1320.593628,1789.127197 1277.948120,1746.451538 1235.297119,1703.781372 
	C1234.009521,1702.493042 1232.843628,1701.082764 1231.333984,1699.411743 
	C1229.687866,1700.961426 1228.364136,1702.143799 1227.110962,1703.396729 
	C1185.269409,1745.226562 1143.387085,1787.015503 1101.629761,1828.929321 
	C1089.644653,1840.959351 1075.225830,1846.623901 1058.556396,1844.857178 
	C1034.475952,1842.305298 1014.681396,1822.731079 1013.789917,1797.360596 
	C1013.181885,1780.057129 1019.840149,1766.655640 1031.553833,1754.942749 
	C1073.979126,1712.521118 1116.401489,1670.096436 1159.357300,1627.140869 
	C1157.315918,1625.343994 1155.239868,1623.709106 1153.383301,1621.854248 
	C1111.763672,1580.273926 1070.166260,1538.671265 1028.569092,1497.068481 
	C1018.870544,1487.368774 1014.106140,1475.794800 1013.878418,1461.933716 
	C1013.625244,1446.522827 1018.837463,1433.724976 1030.113525,1423.458130 
	C1038.413086,1415.901245 1048.204590,1411.786377 1059.586304,1410.905029 
	C1076.927979,1409.562012 1090.653198,1415.878906 1102.738892,1428.081543 
	C1145.074707,1470.826782 1187.740112,1513.245361 1230.514771,1556.022461 
	C1258.219727,1528.305176 1285.859863,1500.652588 1313.750000,1472.750000 
z"/>
<path fill="#DD1F37" opacity="1.000000" stroke="none" 
	d="
M409.756531,203.376892 
	C415.948059,211.588028 419.347443,220.517517 418.921600,230.417923 
	C417.962708,252.711197 401.130371,269.896027 378.779968,270.017456 
	C360.271820,270.118011 347.228516,261.706085 340.013977,244.790497 
	C330.241486,221.877426 344.506622,195.064865 367.297028,190.026764 
	C383.772247,186.384735 398.075073,190.294632 409.756531,203.376892 
z"/>
<path fill="#DD1F37" opacity="1.000000" stroke="none" 
	d="
M652.031494,212.160400 
	C658.878784,229.196121 656.372375,244.566589 644.475769,257.777802 
	C637.419067,265.614288 627.987976,269.522552 617.122314,270.093231 
	C603.915894,270.786804 593.084351,266.256226 584.249634,256.710541 
	C572.797424,244.336670 570.404968,223.754089 579.362244,209.081436 
	C590.898804,190.183914 607.656006,186.085739 626.213135,190.170914 
	C638.150024,192.798676 646.407532,200.953659 652.031494,212.160400 
z"/>
<path fill="#DD1F37" opacity="1.000000" stroke="none" 
	d="
M837.275452,191.020111 
	C861.899902,183.528778 886.316162,194.980835 891.564514,220.832535 
	C896.874634,246.988327 878.858948,269.515808 852.120117,270.156250 
	C832.860352,270.617493 816.594421,257.545624 812.390076,241.295166 
	C807.406494,222.032364 812.821472,204.060867 833.436401,192.928757 
	C834.584412,192.308792 835.724731,191.674591 837.275452,191.020111 
z"/>
<path fill="#DD1F37" opacity="1.000000" stroke="none" 
	d="
M1079.834473,269.383026 
	C1066.618408,267.483521 1051.981567,253.875320 1049.046387,240.505905 
	C1045.802002,225.727966 1048.258667,211.947296 1058.891968,200.911285 
	C1065.715698,193.829071 1074.386353,189.143616 1084.831665,188.965378 
	C1092.421021,188.835892 1099.721924,189.142258 1106.757080,192.865707 
	C1121.376221,200.603134 1128.720825,212.415253 1129.045288,228.939255 
	C1129.397949,246.889389 1120.483887,258.934967 1105.245361,266.871582 
	C1097.378174,270.969025 1088.720459,270.390289 1079.834473,269.383026 
z"/>
<path fill="#DD1F37" opacity="1.000000" stroke="none" 
	d="
M1356.786377,203.288086 
	C1374.069702,223.125778 1366.755371,257.724060 1340.545776,267.247406 
	C1323.494873,273.442871 1308.269043,270.302094 1295.886353,258.003510 
	C1281.616089,243.830154 1281.314087,220.504501 1292.476562,204.872559 
	C1306.679199,184.983231 1340.306885,182.552582 1356.786377,203.288086 
z"/>
<path fill="#FFFFFF" opacity="1.000000" stroke="none" 
	d="
M1273.114990,1021.110840 
	C1273.491943,1020.703674 1274.058228,1020.487732 1274.624390,1020.271729 
	C1274.459595,1020.612122 1274.294922,1020.952515 1273.909668,1021.485352 
	C1273.560791,1021.552490 1273.432373,1021.427246 1273.114990,1021.110840 
z"/>
<path fill="#FFFFFF" opacity="1.000000" stroke="none" 
	d="
M549.629700,725.269165 
	C564.455200,730.768799 577.498291,738.479248 589.631775,748.007446 
	C606.662720,761.381226 619.867371,777.829346 629.414978,797.073547 
	C636.729431,811.816589 641.202515,827.484314 643.130066,844.012512 
	C647.379639,880.452148 638.406616,913.505737 617.760803,943.242310 
	C605.487732,960.919434 589.638184,975.293213 570.586731,985.822632 
	C554.070068,994.950989 536.612122,1000.892639 517.769714,1003.075806 
	C479.072662,1007.559509 444.318512,998.153381 413.192749,974.759216 
	C395.435272,961.412720 381.616974,944.755371 371.695496,925.061768 
	C363.230774,908.259827 358.525726,890.376892 356.770752,871.415588 
	C354.244934,844.125000 360.253021,818.790771 372.209015,794.811218 
	C382.506866,774.157471 397.660370,757.361816 416.491302,743.681152 
	C434.895294,730.310608 455.253540,721.857788 477.412445,718.192810 
	C501.133087,714.269531 524.631897,716.171936 547.354858,724.707703 
	C547.957092,724.933838 548.638306,724.949890 549.629700,725.269165 
z"/>
</svg>